<svg xmlns="http://www.w3.org/2000/svg" viewBox="0 0 520 360" role="img" aria-labelledby="title desc">
  <title id="title">Digital campus library</title>
  <desc id="desc">A dashboard screen with books and study material cards.</desc>
  <rect width="520" height="360" rx="24" fill="#eff6ff"/>
  <rect x="38" y="48" width="444" height="246" rx="18" fill="#ffffff" stroke="#b8c7d9" stroke-width="2"/>
  <rect x="64" y="76" width="392" height="40" rx="8" fill="#0a6ed1"/>
  <circle cx="88" cy="96" r="7" fill="#d1e9ff"/>
  <circle cx="112" cy="96" r="7" fill="#d1e9ff"/>
  <circle cx="136" cy="96" r="7" fill="#d1e9ff"/>
  <rect x="80" y="146" width="128" height="104" rx="10" fill="#f5f6f7" stroke="#d5dadd"/>
  <rect x="238" y="146" width="202" height="22" rx="6" fill="#d1e9ff"/>
  <rect x="238" y="184" width="176" height="16" rx="6" fill="#dde3e8"/>
  <rect x="238" y="214" width="148" height="16" rx="6" fill="#dde3e8"/>
  <rect x="238" y="244" width="118" height="20" rx="8" fill="#107e3e"/>
  <rect x="102" y="174" width="18" height="58" rx="4" fill="#0a6ed1"/>
  <rect x="126" y="158" width="18" height="74" rx="4" fill="#e9730c"/>
  <rect x="150" y="184" width="18" height="48" rx="4" fill="#107e3e"/>
  <path d="M93 244h92" stroke="#6a6d70" stroke-width="6" stroke-linecap="round"/>
  <rect x="126" y="294" width="268" height="18" rx="9" fill="#c9d7e8"/>
  <path d="M188 318h144" stroke="#8298af" stroke-width="10" stroke-linecap="round"/>
</svg>
